<?xml version="1.0" encoding="UTF-8"?>
<svg version="1.1" xmlns="http://www.w3.org/2000/svg" width="64" height="64">
<path d="M0 0 C3.21071285 3.21071285 3.64625557 7.52345562 4.8046875 11.8359375 C6.11382683 15.30130632 7.04164046 16.79866175 10 19 C13.47358779 20.33676483 13.47358779 20.33676483 17.25 21.25 C19.14492187 21.75273438 19.14492187 21.75273438 21.078125 22.265625 C22.04234375 22.50796875 23.0065625 22.7503125 24 23 C24 23.66 24 24.32 24 25 C23.11957031 25.24234375 22.23914062 25.4846875 21.33203125 25.734375 C20.17058594 26.06953125 19.00914063 26.4046875 17.8125 26.75 C16.66394531 27.07484375 15.51539063 27.3996875 14.33203125 27.734375 C10.7458527 29.09653426 8.65637421 30.23294353 6 33 C4.86290136 35.6391919 3.97497959 38.0183495 3.1875 40.75 C2.97158203 41.44738281 2.75566406 42.14476562 2.53320312 42.86328125 C2.00688399 44.57089443 1.50131045 46.2848783 1 48 C-1.43146777 45.56853223 -1.611171 44.00790958 -2.375 40.6875 C-3.95205504 34.62578169 -3.95205504 34.62578169 -8 30 C-12.8497459 27.83387874 -17.83328408 26.21856508 -23 25 C-23 24.34 -23 23.68 -23 23 C-22.04738281 22.78085937 -21.09476563 22.56171875 -20.11328125 22.3359375 C-11.42991096 20.52534124 -11.42991096 20.52534124 -4.88671875 15.05859375 C-2.79019743 10.19133942 -1.35811835 5.11380874 0 0 Z " fill="#000000" transform="translate(23,0)"/>
<path d="M0 0 C0.66 0 1.32 0 2 0 C2.15855469 0.68707031 2.31710938 1.37414063 2.48046875 2.08203125 C3.8015732 7.6746823 3.8015732 7.6746823 7.3125 12 C10.19201872 13.07144883 13.05852039 14.11071547 16 15 C13.84649618 17.15350382 12.90302897 17.39934578 10.0625 18.1875 C6.4210086 19.48049332 6.10318643 19.8169273 4.0625 23.4375 C2.91365348 27.18950649 2.91365348 27.18950649 2 31 C1.34 31 0.68 31 0 31 C-0.15855469 30.31292969 -0.31710938 29.62585938 -0.48046875 28.91796875 C-1.8015732 23.3253177 -1.8015732 23.3253177 -5.3125 19 C-8.19201872 17.92855117 -11.05852039 16.88928453 -14 16 C-11.86203174 13.86203174 -10.87825079 13.56798347 -8.0625 12.75 C-4.75683653 11.56427289 -4.1265829 11.18783269 -2.0625 8.125 C-1.13699182 5.40291712 -0.41788217 2.84159878 0 0 Z " fill="#000000" transform="translate(48,33)"/>
</svg>
